<svg width="18" height="19" viewBox="0 0 18 19" fill="none" xmlns="http://www.w3.org/2000/svg">
<path d="M5.69984 10.6337L11.3915 13.9503M11.3832 4.80033L5.69984 8.11699M16.0415 3.54199C16.0415 4.9227 14.9222 6.04199 13.5415 6.04199C12.1608 6.04199 11.0415 4.9227 11.0415 3.54199C11.0415 2.16128 12.1608 1.04199 13.5415 1.04199C14.9222 1.04199 16.0415 2.16128 16.0415 3.54199ZM6.0415 9.37533C6.0415 10.756 4.92222 11.8753 3.5415 11.8753C2.16079 11.8753 1.0415 10.756 1.0415 9.37533C1.0415 7.99461 2.16079 6.87533 3.5415 6.87533C4.92222 6.87533 6.0415 7.99461 6.0415 9.37533ZM16.0415 15.2087C16.0415 16.5894 14.9222 17.7087 13.5415 17.7087C12.1608 17.7087 11.0415 16.5894 11.0415 15.2087C11.0415 13.8279 12.1608 12.7087 13.5415 12.7087C14.9222 12.7087 16.0415 13.8279 16.0415 15.2087Z" stroke="#0A0D12" stroke-width="2.08333" stroke-linecap="round" stroke-linejoin="round"/>
</svg>
